<?xml version="1.0" encoding="UTF-8"?>
<svg width="57px" height="57px" viewBox="0 0 57 57" version="1.1" xmlns="http://www.w3.org/2000/svg" xmlns:xlink="http://www.w3.org/1999/xlink">
    <!-- Generator: Sketch 49.3 (51167) - http://www.bohemiancoding.com/sketch -->
    <title>play button</title>
    <desc>Created with Sketch.</desc>
    <defs>
        <polygon id="path-1" points="1.70149254e-05 0.0166746269 56.9913224 0.0166746269 56.9913224 56.9999319 1.70149254e-05 56.9999319"></polygon>
    </defs>
    <g id="Page-1" stroke="none" stroke-width="1" fill="none" fill-rule="evenodd">
        <g id="Components" transform="translate(-101.000000, -1355.000000)">
            <g id="play-button" transform="translate(101.000000, 1355.000000)">
                <path d="M36.4362247,27.9682344 L25.1595027,20.2451678 C24.745559,19.9625254 24.1962181,19.9200611 23.7426108,20.1396865 C23.2853976,20.3576133 23,20.8002611 23,21.2787488 L23,36.7196165 C23,37.2031999 23.2853976,37.6441492 23.7426108,37.862076 C23.936061,37.9539687 24.1473598,38 24.3606418,38 C24.6390081,38 24.9209802,37.9166001 25.1595027,37.7513291 L36.4362247,30.0352266 C36.7922956,29.7882542 36.9999887,29.4069248 36.9999887,29.0016456 C37.0017915,28.5897419 36.7886898,28.2099412 36.4362247,27.9682344" id="Fill-1" fill="#CBCBCB"></path>
                <g id="Group-5">
                    <mask id="mask-2" fill="white">
                        <use xlink:href="#path-1"></use>
                    </mask>
                    <g id="Clip-4"></g>
                    <path d="M46.9324558,46.9498961 C42.0083364,51.8735051 35.4609931,54.5848334 28.496614,54.5848334 C14.1184916,54.5848334 2.42107075,42.8892842 2.42107075,28.5133737 C2.42107075,14.1330394 14.1184916,2.43374687 28.496614,2.43374687 C42.8725245,2.43374687 54.5682439,14.1330394 54.5682439,28.5133737 C54.5692648,35.4782633 51.857426,42.0257767 46.9324558,46.9498961 M48.6461991,8.36208716 C43.2640379,2.98043642 36.1082409,0.0166065672 28.496614,0.0166065672 C12.7835006,0.0166065672 1.70149254e-05,12.8000901 1.70149254e-05,28.5133737 C1.70149254e-05,44.2208722 12.7835006,56.9999319 28.496614,56.9999319 C44.2087066,56.9999319 56.9913394,44.2208722 56.9913394,28.5133737 C56.9921901,20.900726 54.0285304,13.7442484 48.6461991,8.36208716" id="Fill-3" fill="#CBCBCB" mask="url(#mask-2)"></path>
                </g>
            </g>
        </g>
    </g>
</svg>